#tb 0: 1/44100
#media_type 0: audio
#codec_id 0: pcm_s16le
#sample_rate 0: 44100
#channel_layout_name 0: stereo
0,          0,          0,     4096,    16384, 0xee65d16b
0,       4096,       4096,     4096,    16384, 0xe1f0e4bd
0,       8192,       8192,     4096,    16384, 0x55b6cbbe
0,      12288,      12288,     4096,    16384, 0x1c960b2c
0,      16384,      16384,     4096,    16384, 0xee3fae37
0,      20480,      20480,     4096,    16384, 0x18bee034
0,      24576,      24576,     4096,    16384, 0xb126eeb6
0,      28672,      28672,     4096,    16384, 0xe3cad8a3
0,      32768,      32768,     4096,    16384, 0xc118c2b2
0,      36864,      36864,     4096,    16384, 0xf511cdb5
0,      40960,      40960,     4096,    16384, 0x5115b057
0,      45056,      45056,     4096,    16384, 0x3e7de091
0,      49152,      49152,     4096,    16384, 0x7237f4b7
0,      53248,      53248,     4096,    16384, 0xb9d39b8c
0,      57344,      57344,     4096,    16384, 0xf992cf31
0,      61440,      61440,     4096,    16384, 0x79a69b64
0,      65536,      65536,     4096,    16384, 0xc1a4d301
0,      69632,      69632,     4096,    16384, 0x7b56f3e5
0,      73728,      73728,     4096,    16384, 0xcc2f8be3
0,      77824,      77824,     4096,    16384, 0x4fd3cd37
